<?xml version="1.0" encoding="UTF-8"?><svg xmlns="http://www.w3.org/2000/svg" xmlns:xlink="http://www.w3.org/1999/xlink" fill-opacity="1" color-rendering="auto" color-interpolation="auto" text-rendering="auto" stroke="black" stroke-linecap="square" width="576" stroke-miterlimit="10" shape-rendering="auto" stroke-opacity="1" fill="black" stroke-dasharray="none" font-weight="normal" stroke-width="1" height="449" font-family="'Dialog'" font-style="normal" stroke-linejoin="miter" font-size="12px" stroke-dashoffset="0" image-rendering="auto">
  <!--Generated by ySVG 2.5-->
  <defs id="genericDefs"/>
  <g>
    <defs id="defs1">
      <clipPath clipPathUnits="userSpaceOnUse" id="clipPath1">
        <path d="M0 0 L576 0 L576 449 L0 449 L0 0 Z"/>
      </clipPath>
      <clipPath clipPathUnits="userSpaceOnUse" id="clipPath2">
        <path d="M88 78 L664 78 L664 527 L88 527 L88 78 Z"/>
      </clipPath>
      <clipPath clipPathUnits="userSpaceOnUse" id="clipPath3">
        <path d="M316 236 L316 292 L440 292 L440 236 Z"/>
      </clipPath>
      <clipPath clipPathUnits="userSpaceOnUse" id="clipPath4">
        <path d="M200 369 L200 425 L352 425 L352 369 Z"/>
      </clipPath>
      <clipPath clipPathUnits="userSpaceOnUse" id="clipPath5">
        <path d="M398 377 L398 416 L567 416 L567 377 Z"/>
      </clipPath>
      <clipPath clipPathUnits="userSpaceOnUse" id="clipPath6">
        <path d="M302 472 L302 511 L454 511 L454 472 Z"/>
      </clipPath>
      <clipPath clipPathUnits="userSpaceOnUse" id="clipPath7">
        <path d="M103 472 L103 511 L255 511 L255 472 Z"/>
      </clipPath>
      <clipPath clipPathUnits="userSpaceOnUse" id="clipPath8">
        <path d="M497 472 L497 511 L649 511 L649 472 Z"/>
      </clipPath>
      <clipPath clipPathUnits="userSpaceOnUse" id="clipPath9">
        <path d="M210 93 L210 124 L362 124 L362 93 Z"/>
      </clipPath>
      <clipPath clipPathUnits="userSpaceOnUse" id="clipPath10">
        <path d="M141 166 L141 194 L265 194 L265 166 Z"/>
      </clipPath>
      <clipPath clipPathUnits="userSpaceOnUse" id="clipPath11">
        <path d="M293 166 L293 194 L433 194 L433 166 Z"/>
      </clipPath>
      <clipPath clipPathUnits="userSpaceOnUse" id="clipPath12">
        <path d="M452 283 L452 311 L643 311 L643 283 Z"/>
      </clipPath>
    </defs>
    <g fill="white" text-rendering="geometricPrecision" shape-rendering="geometricPrecision" transform="translate(-88,-78)" stroke="white">
      <rect x="88" width="576" height="449" y="78" clip-path="url(#clipPath2)" stroke="none"/>
    </g>
    <g fill="rgb(255,255,204)" text-rendering="geometricPrecision" shape-rendering="geometricPrecision" transform="matrix(1,0,0,1,-88,-78)" stroke="rgb(255,255,204)">
      <rect x="316" width="124" height="56" y="236" clip-path="url(#clipPath2)" stroke="none"/>
    </g>
    <g text-rendering="geometricPrecision" stroke-miterlimit="1.45" shape-rendering="geometricPrecision" transform="matrix(1,0,0,1,-88,-78)" stroke-linecap="butt">
      <rect fill="none" x="316" width="124" height="56" y="236" clip-path="url(#clipPath2)"/>
      <text x="333.4863" xml:space="preserve" y="252.6016" clip-path="url(#clipPath3)" font-family="sans-serif" stroke="none">&lt;&lt;interface&gt;&gt;</text>
      <text x="353.0251" font-size="13px" y="276.7012" clip-path="url(#clipPath3)" font-family="sans-serif" stroke="none" font-weight="bold" xml:space="preserve">Display</text>
    </g>
    <g fill="rgb(255,255,204)" text-rendering="geometricPrecision" shape-rendering="geometricPrecision" transform="matrix(1,0,0,1,-88,-78)" stroke="rgb(255,255,204)">
      <rect x="200" width="152" height="56" y="369" clip-path="url(#clipPath2)" stroke="none"/>
    </g>
    <g text-rendering="geometricPrecision" stroke-miterlimit="1.45" shape-rendering="geometricPrecision" transform="matrix(1,0,0,1,-88,-78)" stroke-linecap="butt">
      <rect fill="none" x="200" width="152" height="56" y="369" clip-path="url(#clipPath2)"/>
      <text x="231.4863" xml:space="preserve" y="385.6016" clip-path="url(#clipPath4)" font-family="sans-serif" stroke="none">&lt;&lt;interface&gt;&gt;</text>
      <text x="231.4934" font-size="13px" y="409.7012" clip-path="url(#clipPath4)" font-family="sans-serif" stroke="none" font-weight="bold" xml:space="preserve">SpriteDisplay</text>
    </g>
    <g fill="rgb(255,255,204)" text-rendering="geometricPrecision" shape-rendering="geometricPrecision" transform="matrix(1,0,0,1,-88,-78)" stroke="rgb(255,255,204)">
      <rect x="398" width="169" height="39" y="377.5" clip-path="url(#clipPath2)" stroke="none"/>
    </g>
    <g text-rendering="geometricPrecision" stroke-miterlimit="1.45" shape-rendering="geometricPrecision" transform="matrix(1,0,0,1,-88,-78)" stroke-linecap="butt">
      <rect fill="none" x="398" width="169" height="39" y="377.5" clip-path="url(#clipPath2)"/>
      <text x="426.3835" font-size="13px" y="395.0684" clip-path="url(#clipPath5)" font-family="sans-serif" stroke="none" font-weight="bold" xml:space="preserve">AnimatedCanvas</text>
    </g>
    <g fill="rgb(255,255,204)" text-rendering="geometricPrecision" shape-rendering="geometricPrecision" transform="matrix(1,0,0,1,-88,-78)" stroke="rgb(255,255,204)">
      <rect x="302" width="152" height="39" y="472.5" clip-path="url(#clipPath2)" stroke="none"/>
    </g>
    <g text-rendering="geometricPrecision" stroke-miterlimit="1.45" shape-rendering="geometricPrecision" transform="matrix(1,0,0,1,-88,-78)" stroke-linecap="butt">
      <rect fill="none" x="302" width="152" height="39" y="472.5" clip-path="url(#clipPath2)"/>
      <text x="334.3948" font-size="13px" y="490.0684" clip-path="url(#clipPath6)" font-family="sans-serif" stroke="none" font-weight="bold" xml:space="preserve">SpriteCanvas</text>
    </g>
    <g fill="rgb(255,255,204)" text-rendering="geometricPrecision" shape-rendering="geometricPrecision" transform="matrix(1,0,0,1,-88,-78)" stroke="rgb(255,255,204)">
      <rect x="103" width="152" height="39" y="472.5" clip-path="url(#clipPath2)" stroke="none"/>
    </g>
    <g text-rendering="geometricPrecision" stroke-miterlimit="1.45" shape-rendering="geometricPrecision" transform="matrix(1,0,0,1,-88,-78)" stroke-linecap="butt">
      <rect fill="none" x="103" width="152" height="39" y="472.5" clip-path="url(#clipPath2)"/>
      <text x="137.4546" font-size="13px" y="490.0684" clip-path="url(#clipPath7)" font-family="sans-serif" stroke="none" font-weight="bold" xml:space="preserve">SpriteScreen</text>
    </g>
    <g fill="rgb(255,255,204)" text-rendering="geometricPrecision" shape-rendering="geometricPrecision" transform="matrix(1,0,0,1,-88,-78)" stroke="rgb(255,255,204)">
      <rect x="497" width="152" height="39" y="472.5" clip-path="url(#clipPath2)" stroke="none"/>
    </g>
    <g text-rendering="geometricPrecision" stroke-miterlimit="1.45" shape-rendering="geometricPrecision" transform="matrix(1,0,0,1,-88,-78)" stroke-linecap="butt">
      <rect fill="none" x="497" width="152" height="39" y="472.5" clip-path="url(#clipPath2)"/>
      <text x="519.4797" font-size="13px" y="490.0684" clip-path="url(#clipPath8)" font-family="sans-serif" stroke="none" font-weight="bold" xml:space="preserve">GraphicsCanvas</text>
    </g>
    <g fill="rgb(255,255,204)" text-rendering="geometricPrecision" shape-rendering="geometricPrecision" transform="matrix(1,0,0,1,-88,-78)" stroke="rgb(255,255,204)">
      <rect x="210" width="152" height="31" y="93" clip-path="url(#clipPath2)" stroke="none"/>
    </g>
    <g text-rendering="geometricPrecision" stroke-miterlimit="1.45" shape-rendering="geometricPrecision" transform="matrix(1,0,0,1,-88,-78)" stroke-linecap="butt">
      <rect fill="none" x="210" width="152" height="31" y="93" clip-path="url(#clipPath2)"/>
      <text x="225.2148" font-size="13px" y="110.5684" clip-path="url(#clipPath9)" font-family="sans-serif" stroke="none" font-weight="bold" xml:space="preserve">AnimationWindow</text>
    </g>
    <g fill="rgb(255,255,204)" text-rendering="geometricPrecision" shape-rendering="geometricPrecision" transform="matrix(1,0,0,1,-88,-78)" stroke="rgb(255,255,204)">
      <rect x="141" width="124" height="28" y="166" clip-path="url(#clipPath2)" stroke="none"/>
    </g>
    <g text-rendering="geometricPrecision" stroke-miterlimit="1.45" shape-rendering="geometricPrecision" transform="matrix(1,0,0,1,-88,-78)" stroke-linecap="butt">
      <rect fill="none" x="141" width="124" height="28" y="166" clip-path="url(#clipPath2)"/>
      <text x="157.1445" font-size="13px" y="183.5684" clip-path="url(#clipPath10)" font-family="sans-serif" stroke="none" font-weight="bold" xml:space="preserve">SpriteWindow</text>
    </g>
    <g fill="rgb(255,255,204)" text-rendering="geometricPrecision" shape-rendering="geometricPrecision" transform="matrix(1,0,0,1,-88,-78)" stroke="rgb(255,255,204)">
      <rect x="293" width="140" height="28" y="166" clip-path="url(#clipPath2)" stroke="none"/>
    </g>
    <g text-rendering="geometricPrecision" stroke-miterlimit="1.45" shape-rendering="geometricPrecision" transform="matrix(1,0,0,1,-88,-78)" stroke-linecap="butt">
      <rect fill="none" x="293" width="140" height="28" y="166" clip-path="url(#clipPath2)"/>
      <text x="307.2295" font-size="13px" y="183.5684" clip-path="url(#clipPath11)" font-family="sans-serif" stroke="none" font-weight="bold" xml:space="preserve">GraphicsWindow</text>
    </g>
    <g fill="rgb(255,255,204)" text-rendering="geometricPrecision" shape-rendering="geometricPrecision" transform="matrix(1,0,0,1,-88,-78)" stroke="rgb(255,255,204)">
      <rect x="453" width="189" height="26" y="284" clip-path="url(#clipPath2)" stroke="none"/>
      <rect x="452" y="283" clip-path="url(#clipPath2)" fill="white" width="1" height="28" stroke="none"/>
      <rect x="453" y="283" clip-path="url(#clipPath2)" fill="white" width="189" height="1" stroke="none"/>
      <rect x="453" y="310" clip-path="url(#clipPath2)" fill="rgb(178,178,142)" width="190" height="1" stroke="none"/>
      <rect x="642" y="283" clip-path="url(#clipPath2)" fill="rgb(178,178,142)" width="1" height="27" stroke="none"/>
    </g>
    <g font-size="13px" stroke-linecap="butt" transform="matrix(1,0,0,1,-88,-78)" text-rendering="geometricPrecision" font-family="sans-serif" shape-rendering="geometricPrecision" font-weight="bold" stroke-miterlimit="1.45">
      <text x="466.0867" xml:space="preserve" y="300.5684" clip-path="url(#clipPath12)" stroke="none">javax.swing.JComponent</text>
      <path fill="none" d="M276 368.9951 L276 331 L378 331 L378 306.9712" clip-path="url(#clipPath2)"/>
    </g>
    <g stroke-linecap="butt" transform="matrix(1,0,0,1,-88,-78)" fill="white" text-rendering="geometricPrecision" shape-rendering="geometricPrecision" stroke="white" stroke-miterlimit="1.45">
      <path d="M378 291.9712 L372 307.9712 L384 307.9712 Z" stroke="none" clip-path="url(#clipPath2)"/>
      <path fill="none" d="M378 291.9712 L372 307.9712 L384 307.9712 Z" clip-path="url(#clipPath2)" stroke="black"/>
      <path fill="none" stroke-dasharray="6,2" d="M468.5 377.5029 L468.5 331 L378 331 L378 306.9712" clip-path="url(#clipPath2)" stroke="black"/>
      <path stroke-dasharray="6,2" d="M378 291.9712 L372 307.9712 L384 307.9712 Z" clip-path="url(#clipPath2)" stroke="none"/>
      <path fill="none" d="M378 291.9712 L372 307.9712 L384 307.9712 Z" clip-path="url(#clipPath2)" stroke="black"/>
      <path fill="none" stroke-dasharray="6,2" d="M378 472.5176 L378 450 L276 450 L276 439.9751" clip-path="url(#clipPath2)" stroke="black"/>
      <path stroke-dasharray="6,2" d="M276 424.9751 L270 440.9751 L282 440.9751 Z" clip-path="url(#clipPath2)" stroke="none"/>
      <path fill="none" d="M276 424.9751 L270 440.9751 L282 440.9751 Z" clip-path="url(#clipPath2)" stroke="black"/>
      <path fill="none" d="M399.6667 472.4893 L399.6667 447 L482.5 447 L482.5 431.4824" clip-path="url(#clipPath2)" stroke="black"/>
      <path d="M482.5 416.4824 L476.5 432.4824 L488.5 432.4824 Z" clip-path="url(#clipPath2)" stroke="none"/>
      <path fill="none" d="M482.5 416.4824 L476.5 432.4824 L488.5 432.4824 Z" clip-path="url(#clipPath2)" stroke="black"/>
      <path fill="none" stroke-dasharray="6,2" d="M179 472.5176 L179 450 L276 450 L276 439.9751" clip-path="url(#clipPath2)" stroke="black"/>
      <path stroke-dasharray="6,2" d="M276 424.9751 L270 440.9751 L282 440.9751 Z" clip-path="url(#clipPath2)" stroke="none"/>
      <path fill="none" d="M276 424.9751 L270 440.9751 L282 440.9751 Z" clip-path="url(#clipPath2)" stroke="black"/>
      <path fill="none" d="M573 472.5322 L573 447 L482.5 447 L482.5 431.4824" clip-path="url(#clipPath2)" stroke="black"/>
      <path d="M482.5 416.4824 L476.5 432.4824 L488.5 432.4824 Z" clip-path="url(#clipPath2)" stroke="none"/>
      <path fill="none" d="M482.5 416.4824 L476.5 432.4824 L488.5 432.4824 Z" clip-path="url(#clipPath2)" stroke="black"/>
      <path fill="none" d="M362.0393 108.5 L461.6667 108.5 L461.6667 257 L447.9992 257" clip-path="url(#clipPath2)" stroke="black"/>
      <path fill="black" d="M439.9992 257 L451.9992 262 L448.9992 257 L451.9992 252 Z" clip-path="url(#clipPath2)" stroke="none"/>
      <text x="393.0314" y="122.9715" clip-path="url(#clipPath2)" fill="black" font-family="sans-serif" stroke="none" xml:space="preserve">controls →</text>
      <path fill="none" d="M203.9668 165.9814 L205 151 L286 151 L286 138.981" clip-path="url(#clipPath2)" stroke="black"/>
      <path d="M286 123.981 L280 139.981 L292 139.981 Z" clip-path="url(#clipPath2)" stroke="none"/>
      <path fill="none" d="M286 123.981 L280 139.981 L292 139.981 Z" clip-path="url(#clipPath2)" stroke="black"/>
      <path fill="none" d="M362.7583 165.9814 L362.5 151 L286 151 L286 138.981" clip-path="url(#clipPath2)" stroke="black"/>
      <path d="M286 123.981 L280 139.981 L292 139.981 Z" clip-path="url(#clipPath2)" stroke="none"/>
      <path fill="none" d="M286 123.981 L280 139.981 L292 139.981 Z" clip-path="url(#clipPath2)" stroke="black"/>
      <path fill="none" d="M538.5 377.4838 L538.5 326.0078" clip-path="url(#clipPath2)" stroke="black"/>
      <path d="M538.5 311.0078 L532.5 327.0078 L544.5 327.0078 Z" clip-path="url(#clipPath2)" stroke="none"/>
      <path fill="none" d="M538.5 311.0078 L532.5 327.0078 L544.5 327.0078 Z" clip-path="url(#clipPath2)" stroke="black"/>
    </g>
  </g>
</svg>
