<?xml version="1.0" encoding="UTF-8"?><svg xmlns="http://www.w3.org/2000/svg" xmlns:xlink="http://www.w3.org/1999/xlink" fill-opacity="1" color-rendering="auto" color-interpolation="auto" text-rendering="auto" stroke="black" stroke-linecap="square" width="725" stroke-miterlimit="10" shape-rendering="auto" stroke-opacity="1" fill="black" stroke-dasharray="none" font-weight="normal" stroke-width="1" height="583" font-family="'Dialog'" font-style="normal" stroke-linejoin="miter" font-size="12px" stroke-dashoffset="0" image-rendering="auto">
  <!--Generated by ySVG 2.5-->
  <defs id="genericDefs"/>
  <g>
    <defs id="defs1">
      <clipPath clipPathUnits="userSpaceOnUse" id="clipPath1">
        <path d="M0 0 L725 0 L725 583 L0 583 L0 0 Z"/>
      </clipPath>
      <clipPath clipPathUnits="userSpaceOnUse" id="clipPath2">
        <path d="M-66 73 L659 73 L659 656 L-66 656 L-66 73 Z"/>
      </clipPath>
      <clipPath clipPathUnits="userSpaceOnUse" id="clipPath3">
        <path d="M-51 88 L-51 321 L208 321 L208 88 Z"/>
      </clipPath>
      <clipPath clipPathUnits="userSpaceOnUse" id="clipPath4">
        <path d="M0 0 L0 165 L253 165 L253 0 Z"/>
      </clipPath>
      <clipPath clipPathUnits="userSpaceOnUse" id="clipPath5">
        <path d="M338 96 L338 171 L528 171 L528 96 Z"/>
      </clipPath>
      <clipPath clipPathUnits="userSpaceOnUse" id="clipPath6">
        <path d="M298 108 L298 136 L351 136 L351 108 Z"/>
      </clipPath>
      <clipPath clipPathUnits="userSpaceOnUse" id="clipPath7">
        <path d="M338 224 L338 343 L528 343 L528 224 Z"/>
      </clipPath>
      <clipPath clipPathUnits="userSpaceOnUse" id="clipPath8">
        <path d="M0 0 L0 30 L185 30 L185 0 Z"/>
      </clipPath>
      <clipPath clipPathUnits="userSpaceOnUse" id="clipPath9">
        <path d="M232 396 L232 504 L416 504 L416 396 Z"/>
      </clipPath>
      <clipPath clipPathUnits="userSpaceOnUse" id="clipPath10">
        <path d="M0 0 L0 30 L179 30 L179 0 Z"/>
      </clipPath>
      <clipPath clipPathUnits="userSpaceOnUse" id="clipPath11">
        <path d="M453 396 L453 504 L643 504 L643 396 Z"/>
      </clipPath>
      <clipPath clipPathUnits="userSpaceOnUse" id="clipPath12">
        <path d="M-34 408 L-34 504 L150 504 L150 408 Z"/>
      </clipPath>
      <clipPath clipPathUnits="userSpaceOnUse" id="clipPath13">
        <path d="M0 0 L0 15 L135 15 L135 0 Z"/>
      </clipPath>
      <clipPath clipPathUnits="userSpaceOnUse" id="clipPath14">
        <path d="M47 544 L47 640 L295 640 L295 544 Z"/>
      </clipPath>
      <clipPath clipPathUnits="userSpaceOnUse" id="clipPath15">
        <path d="M0 0 L0 15 L224 15 L224 0 Z"/>
      </clipPath>
    </defs>
    <g fill="white" text-rendering="geometricPrecision" shape-rendering="geometricPrecision" transform="translate(66,-73)" stroke="white">
      <rect x="-66" width="725" height="583" y="73" clip-path="url(#clipPath2)" stroke="none"/>
    </g>
    <g fill="rgb(255,255,204)" text-rendering="geometricPrecision" shape-rendering="geometricPrecision" transform="matrix(1,0,0,1,66,-73)" stroke="rgb(255,255,204)">
      <rect x="-51" width="259.25" height="233" y="88" clip-path="url(#clipPath2)" stroke="none"/>
    </g>
    <g text-rendering="geometricPrecision" stroke-miterlimit="1.45" shape-rendering="geometricPrecision" transform="matrix(1,0,0,1,66,-73)" stroke-linecap="butt">
      <rect fill="none" x="-51" width="259.25" height="233" y="88" clip-path="url(#clipPath2)"/>
      <text x="27.1931" font-size="13px" y="105.0669" clip-path="url(#clipPath3)" font-family="sans-serif" stroke="none" font-weight="bold" xml:space="preserve">SpriteWindow</text>
      <line stroke-linecap="square" clip-path="url(#clipPath3)" fill="none" x1="-50" x2="207" y1="113" y2="113" stroke-miterlimit="10"/>
      <text x="-46" xml:space="preserve" y="129.2715" clip-path="url(#clipPath3)" font-family="sans-serif" stroke="none">-gridSize : Size</text>
      <text x="-46" xml:space="preserve" y="143.2402" clip-path="url(#clipPath3)" font-family="sans-serif" stroke="none">-tileSize : Size</text>
      <line stroke-linecap="square" clip-path="url(#clipPath3)" fill="none" x1="-50" x2="207" y1="151" y2="151" stroke-miterlimit="10"/>
    </g>
    <g text-rendering="geometricPrecision" stroke-miterlimit="1.45" shape-rendering="geometricPrecision" font-family="sans-serif" transform="matrix(1,0,0,1,66,-73) translate(-46,156)" stroke-linecap="butt">
      <text x="0" xml:space="preserve" y="12" clip-path="url(#clipPath4)" stroke="none">+setTextMode()</text>
      <line y2="13" fill="none" x1="0" clip-path="url(#clipPath4)" x2="100" y1="13"/>
      <text x="100" xml:space="preserve" y="12" clip-path="url(#clipPath4)" stroke="none"> </text>
      <text x="0" xml:space="preserve" y="27" clip-path="url(#clipPath4)" stroke="none">+setFps(double fps)</text>
      <text x="128" xml:space="preserve" y="27" clip-path="url(#clipPath4)" stroke="none"> </text>
      <text x="0" xml:space="preserve" y="42" clip-path="url(#clipPath4)" stroke="none">+setTileSize(Size s)</text>
      <text x="120" xml:space="preserve" y="42" clip-path="url(#clipPath4)" stroke="none"> </text>
      <text x="0" xml:space="preserve" y="57" clip-path="url(#clipPath4)" stroke="none">+getTileSize() : Size</text>
      <text x="122" xml:space="preserve" y="57" clip-path="url(#clipPath4)" stroke="none"> </text>
      <text x="0" xml:space="preserve" y="72" clip-path="url(#clipPath4)" stroke="none">+getInitialFrame() : AnimationFrame</text>
      <text x="226" xml:space="preserve" y="72" clip-path="url(#clipPath4)" stroke="none"> </text>
      <text x="0" xml:space="preserve" y="87" clip-path="url(#clipPath4)" stroke="none">+start()</text>
      <text x="50" xml:space="preserve" y="87" clip-path="url(#clipPath4)" stroke="none"> </text>
      <text x="0" xml:space="preserve" y="102" clip-path="url(#clipPath4)" stroke="none">+getTimeSinceStart() : double</text>
      <text x="190" xml:space="preserve" y="102" clip-path="url(#clipPath4)" stroke="none"> </text>
      <text x="0" xml:space="preserve" y="117" clip-path="url(#clipPath4)" stroke="none">+waitForNextFrame() : AnimationFrame  </text>
      <text x="253" xml:space="preserve" y="117" clip-path="url(#clipPath4)" stroke="none"> </text>
      <text x="0" xml:space="preserve" y="132" clip-path="url(#clipPath4)" stroke="none">+showNextFrame()</text>
      <text x="119" xml:space="preserve" y="132" clip-path="url(#clipPath4)" stroke="none"> </text>
      <text x="0" xml:space="preserve" y="147" clip-path="url(#clipPath4)" stroke="none">+pauseAnimation(int ms)</text>
      <text x="159" xml:space="preserve" y="147" clip-path="url(#clipPath4)" stroke="none"> </text>
      <text x="0" xml:space="preserve" y="162" clip-path="url(#clipPath4)" stroke="none">+stop()</text>
      <text x="48" xml:space="preserve" y="162" clip-path="url(#clipPath4)" stroke="none"> </text>
    </g>
    <g fill="rgb(255,255,204)" text-rendering="geometricPrecision" shape-rendering="geometricPrecision" transform="matrix(1,0,0,1,66,-73)" stroke="rgb(255,255,204)">
      <rect x="338.375" width="190.25" height="75" y="96.5" clip-path="url(#clipPath2)" stroke="none"/>
    </g>
    <g text-rendering="geometricPrecision" stroke-miterlimit="1.45" shape-rendering="geometricPrecision" transform="matrix(1,0,0,1,66,-73)" stroke-linecap="butt">
      <rect fill="none" x="338.375" width="190.25" height="75" y="96.5" clip-path="url(#clipPath2)"/>
      <text x="372.8132" font-size="13px" y="113.5669" clip-path="url(#clipPath5)" font-family="sans-serif" stroke="none" font-weight="bold" xml:space="preserve">AnimationFrame</text>
      <line stroke-linecap="square" clip-path="url(#clipPath5)" fill="none" x1="339" x2="527" y1="121" y2="121" stroke-miterlimit="10"/>
      <text x="343.375" xml:space="preserve" y="137.7715" clip-path="url(#clipPath5)" font-family="sans-serif" stroke="none">-grid : List&lt;Tile&gt;[][]</text>
      <line stroke-linecap="square" clip-path="url(#clipPath5)" fill="none" x1="339" x2="527" y1="145" y2="145" stroke-miterlimit="10"/>
      <text x="343.375" xml:space="preserve" y="161.7402" clip-path="url(#clipPath5)" font-family="sans-serif" stroke="none">+addTile(int x, int y, Tile tile)</text>
      <text x="320.3804" font-size="13px" y="125.0669" clip-path="url(#clipPath6)" font-family="sans-serif" stroke="none" xml:space="preserve">n</text>
    </g>
    <g fill="rgb(255,255,204)" text-rendering="geometricPrecision" shape-rendering="geometricPrecision" transform="matrix(1,0,0,1,66,-73)" stroke="rgb(255,255,204)">
      <rect x="338.375" width="190.25" height="119" y="224.5" clip-path="url(#clipPath2)" stroke="none"/>
    </g>
    <g text-rendering="geometricPrecision" stroke-miterlimit="1.45" shape-rendering="geometricPrecision" transform="matrix(1,0,0,1,66,-73)" stroke-linecap="butt">
      <rect fill="none" x="338.375" width="190.25" height="119" y="224.5" clip-path="url(#clipPath2)"/>
      <text x="386.6309" xml:space="preserve" y="240.6387" clip-path="url(#clipPath7)" font-family="sans-serif" stroke="none">&lt;&lt;interface&gt;&gt;</text>
      <text x="420.2017" font-size="13px" y="264.5356" clip-path="url(#clipPath7)" font-family="sans-serif" stroke="none" font-weight="bold" xml:space="preserve">Tile</text>
      <line stroke-linecap="square" clip-path="url(#clipPath7)" fill="none" x1="339" x2="527" y1="272" y2="272" stroke-miterlimit="10"/>
      <text x="343.375" xml:space="preserve" y="288.7402" clip-path="url(#clipPath7)" font-family="sans-serif" stroke="none"> </text>
      <line stroke-linecap="square" clip-path="url(#clipPath7)" fill="none" x1="339" x2="527" y1="296" y2="296" stroke-miterlimit="10"/>
    </g>
    <g stroke-linecap="butt" transform="matrix(1,0,0,1,66,-73) translate(343,301)" text-rendering="geometricPrecision" font-family="sans-serif" shape-rendering="geometricPrecision" font-style="italic" stroke-miterlimit="1.45">
      <text x="0" xml:space="preserve" y="12" clip-path="url(#clipPath8)" stroke="none">+paint(Graphics2D g, Size s)  </text>
      <text x="0" xml:space="preserve" y="27" clip-path="url(#clipPath8)" stroke="none">+getText() : char</text>
    </g>
    <g fill="rgb(255,255,204)" text-rendering="geometricPrecision" shape-rendering="geometricPrecision" transform="matrix(1,0,0,1,66,-73)" stroke="rgb(255,255,204)">
      <rect x="232.5" width="184" height="108" y="396.5" clip-path="url(#clipPath2)" stroke="none"/>
    </g>
    <g text-rendering="geometricPrecision" stroke-miterlimit="1.45" shape-rendering="geometricPrecision" transform="matrix(1,0,0,1,66,-73)" stroke-linecap="butt">
      <rect fill="none" x="232.5" width="184" height="108" y="396.5" clip-path="url(#clipPath2)"/>
      <text x="288.5627" font-size="13px" y="413.5669" clip-path="url(#clipPath9)" font-family="sans-serif" stroke="none" font-weight="bold" xml:space="preserve">ImageTile</text>
      <line stroke-linecap="square" clip-path="url(#clipPath9)" fill="none" x1="233" x2="415" y1="421" y2="421" stroke-miterlimit="10"/>
      <text x="237.5" xml:space="preserve" y="437.7715" clip-path="url(#clipPath9)" font-family="sans-serif" stroke="none">-image : Image</text>
      <text x="237.5" xml:space="preserve" y="451.7402" clip-path="url(#clipPath9)" font-family="sans-serif" stroke="none">-text : char</text>
      <line stroke-linecap="square" clip-path="url(#clipPath9)" fill="none" x1="233" x2="415" y1="459" y2="459" stroke-miterlimit="10"/>
    </g>
    <g text-rendering="geometricPrecision" stroke-miterlimit="1.45" shape-rendering="geometricPrecision" font-family="sans-serif" transform="matrix(1,0,0,1,66,-73) translate(237,464)" stroke-linecap="butt">
      <text x="0" xml:space="preserve" y="12" clip-path="url(#clipPath10)" stroke="none">+paint(Graphics2D g, Size s)  </text>
      <text x="0" xml:space="preserve" y="27" clip-path="url(#clipPath10)" stroke="none">+getText() : char</text>
    </g>
    <g fill="rgb(255,255,204)" text-rendering="geometricPrecision" shape-rendering="geometricPrecision" transform="matrix(1,0,0,1,66,-73)" stroke="rgb(255,255,204)">
      <rect x="453.5" width="190.25" height="108" y="396.5" clip-path="url(#clipPath2)" stroke="none"/>
    </g>
    <g text-rendering="geometricPrecision" stroke-miterlimit="1.45" shape-rendering="geometricPrecision" transform="matrix(1,0,0,1,66,-73)" stroke-linecap="butt">
      <rect fill="none" x="453.5" width="190.25" height="108" y="396.5" clip-path="url(#clipPath2)"/>
      <text x="497.9358" font-size="13px" y="413.5669" clip-path="url(#clipPath11)" font-family="sans-serif" stroke="none" font-weight="bold" xml:space="preserve">SolidColorTile</text>
      <line stroke-linecap="square" clip-path="url(#clipPath11)" fill="none" x1="454" x2="642" y1="421" y2="421" stroke-miterlimit="10"/>
      <text x="458.5" xml:space="preserve" y="437.7715" clip-path="url(#clipPath11)" font-family="sans-serif" stroke="none">-color : Color</text>
      <text x="458.5" xml:space="preserve" y="451.7402" clip-path="url(#clipPath11)" font-family="sans-serif" stroke="none">-text : char</text>
      <line stroke-linecap="square" clip-path="url(#clipPath11)" fill="none" x1="454" x2="642" y1="459" y2="459" stroke-miterlimit="10"/>
    </g>
    <g text-rendering="geometricPrecision" stroke-miterlimit="1.45" shape-rendering="geometricPrecision" font-family="sans-serif" transform="matrix(1,0,0,1,66,-73) translate(458,464)" stroke-linecap="butt">
      <text x="0" xml:space="preserve" y="12" clip-path="url(#clipPath8)" stroke="none">+paint(Graphics2D g, Size s)  </text>
      <text x="0" xml:space="preserve" y="27" clip-path="url(#clipPath8)" stroke="none">+getText() : char</text>
    </g>
    <g fill="rgb(255,255,204)" text-rendering="geometricPrecision" shape-rendering="geometricPrecision" transform="matrix(1,0,0,1,66,-73)" stroke="rgb(255,255,204)">
      <rect x="-34" width="184" height="96" y="408.5" clip-path="url(#clipPath2)" stroke="none"/>
    </g>
    <g text-rendering="geometricPrecision" stroke-miterlimit="1.45" shape-rendering="geometricPrecision" transform="matrix(1,0,0,1,66,-73)" stroke-linecap="butt">
      <rect fill="none" x="-34" width="184" height="96" y="408.5" clip-path="url(#clipPath2)"/>
      <text x="-20.6299" xml:space="preserve" y="424.6387" clip-path="url(#clipPath12)" font-family="sans-serif" stroke="none">&lt;&lt;functional interface&gt;&gt;</text>
      <text x="-7.0159" font-size="13px" y="448.5356" clip-path="url(#clipPath12)" font-family="sans-serif" stroke="none" font-weight="bold" xml:space="preserve">KeyTypedHandler</text>
      <line stroke-linecap="square" clip-path="url(#clipPath12)" fill="none" x1="-33" x2="149" y1="456" y2="456" stroke-miterlimit="10"/>
      <line stroke-linecap="square" clip-path="url(#clipPath12)" fill="none" x1="-33" x2="149" y1="466" y2="466" stroke-miterlimit="10"/>
    </g>
    <g stroke-linecap="butt" transform="matrix(1,0,0,1,66,-73) translate(-29,471)" text-rendering="geometricPrecision" font-family="sans-serif" shape-rendering="geometricPrecision" font-style="italic" stroke-miterlimit="1.45">
      <text x="0" xml:space="preserve" y="12" clip-path="url(#clipPath13)" stroke="none">+keyTyped(char ch)  </text>
    </g>
    <g fill="rgb(255,255,204)" text-rendering="geometricPrecision" shape-rendering="geometricPrecision" transform="matrix(1,0,0,1,66,-73)" stroke="rgb(255,255,204)">
      <rect x="47" width="248" height="96" y="544.5" clip-path="url(#clipPath2)" stroke="none"/>
    </g>
    <g text-rendering="geometricPrecision" stroke-miterlimit="1.45" shape-rendering="geometricPrecision" transform="matrix(1,0,0,1,66,-73)" stroke-linecap="butt">
      <rect fill="none" x="47" width="248" height="96" y="544.5" clip-path="url(#clipPath2)"/>
      <text x="92.3701" xml:space="preserve" y="560.6387" clip-path="url(#clipPath14)" font-family="sans-serif" stroke="none">&lt;&lt;functional interface&gt;&gt;</text>
      <text x="91.7495" font-size="13px" y="584.5356" clip-path="url(#clipPath14)" font-family="sans-serif" stroke="none" font-weight="bold" xml:space="preserve">MouseClickedHandler</text>
      <line stroke-linecap="square" clip-path="url(#clipPath14)" fill="none" x1="48" x2="294" y1="592" y2="592" stroke-miterlimit="10"/>
      <line stroke-linecap="square" clip-path="url(#clipPath14)" fill="none" x1="48" x2="294" y1="602" y2="602" stroke-miterlimit="10"/>
    </g>
    <g stroke-linecap="butt" transform="matrix(1,0,0,1,66,-73) translate(52,607)" text-rendering="geometricPrecision" font-family="sans-serif" shape-rendering="geometricPrecision" font-style="italic" stroke-miterlimit="1.45">
      <text x="0" xml:space="preserve" y="12" clip-path="url(#clipPath15)" stroke="none">+mouseClicked(int gridX, int gridY)  </text>
    </g>
    <g text-rendering="geometricPrecision" stroke-miterlimit="1.45" shape-rendering="geometricPrecision" transform="matrix(1,0,0,1,66,-73)" stroke-linecap="butt">
      <path fill="none" d="M208.2922 134 L330.353 134" clip-path="url(#clipPath2)"/>
      <path d="M338.353 134 L326.353 129 L329.353 134 L326.353 139 Z" clip-path="url(#clipPath2)" stroke="none"/>
      <text x="271.4053" xml:space="preserve" y="131.1699" clip-path="url(#clipPath2)" font-family="sans-serif" stroke="none"> </text>
      <text x="244.0742" xml:space="preserve" y="145.1387" clip-path="url(#clipPath2)" font-family="sans-serif" stroke="none">creates →</text>
      <path fill="none" d="M433.5 171.5366 L433.5 216.5009" clip-path="url(#clipPath2)"/>
      <path d="M433.5 224.5009 L438.5 212.5009 L433.5 215.5009 L428.5 212.5009 Z" clip-path="url(#clipPath2)" stroke="none"/>
      <text x="368.3203" xml:space="preserve" y="202.1543" clip-path="url(#clipPath2)" font-family="sans-serif" stroke="none">displays ↓  </text>
      <path fill="none" stroke-dasharray="6,2" d="M324.5 396.5059 L324.5 374.5 L433.5 374.5 L433.5 358.5232" clip-path="url(#clipPath2)"/>
      <path fill="white" stroke-dasharray="6,2" d="M433.5 343.5232 L427.5 359.5232 L439.5 359.5232 Z" clip-path="url(#clipPath2)" stroke="none"/>
      <path fill="none" d="M433.5 343.5232 L427.5 359.5232 L439.5 359.5232 Z" clip-path="url(#clipPath2)"/>
      <path fill="none" stroke-dasharray="6,2" d="M548.625 396.5059 L548.625 374.5 L433.5 374.5 L433.5 358.5232" clip-path="url(#clipPath2)"/>
      <path fill="white" stroke-dasharray="6,2" d="M433.5 343.5232 L427.5 359.5232 L439.5 359.5232 Z" clip-path="url(#clipPath2)" stroke="none"/>
      <path fill="none" d="M433.5 343.5232 L427.5 359.5232 L439.5 359.5232 Z" clip-path="url(#clipPath2)"/>
      <path fill="none" d="M58.5654 321.0135 L58.2337 400.5042" clip-path="url(#clipPath2)"/>
      <path d="M58.2003 408.5042 L63.2503 396.5251 L58.2378 399.5043 L53.2504 396.4834 Z" clip-path="url(#clipPath2)" stroke="none"/>
      <text x="-2.549" xml:space="preserve" y="368.9043" clip-path="url(#clipPath2)" font-family="sans-serif" stroke="none">notifies ↓ </text>
      <path fill="none" d="M175.2112 321.0195 L171.869 536.4815" clip-path="url(#clipPath2)"/>
      <path d="M171.7449 544.4805 L176.9304 532.5595 L171.8845 535.4816 L166.9316 532.4044 Z" clip-path="url(#clipPath2)" stroke="none"/>
      <text x="113.551" xml:space="preserve" y="371.9062" clip-path="url(#clipPath2)" font-family="sans-serif" stroke="none">notifies ↓ </text>
    </g>
  </g>
</svg>
