<?xml version="1.0" encoding="UTF-8"?><svg xmlns="http://www.w3.org/2000/svg" xmlns:xlink="http://www.w3.org/1999/xlink" fill-opacity="1" color-rendering="auto" color-interpolation="auto" text-rendering="auto" stroke="black" stroke-linecap="square" width="576" stroke-miterlimit="10" shape-rendering="auto" stroke-opacity="1" fill="black" stroke-dasharray="none" font-weight="normal" stroke-width="1" height="437" font-family="'Dialog'" font-style="normal" stroke-linejoin="miter" font-size="12px" stroke-dashoffset="0" image-rendering="auto">
  <!--Generated by ySVG 2.5-->
  <defs id="genericDefs"/>
  <g>
    <defs id="defs1">
      <clipPath clipPathUnits="userSpaceOnUse" id="clipPath1">
        <path d="M0 0 L576 0 L576 437 L0 437 L0 0 Z"/>
      </clipPath>
      <clipPath clipPathUnits="userSpaceOnUse" id="clipPath2">
        <path d="M98 78 L674 78 L674 515 L98 515 L98 78 Z"/>
      </clipPath>
      <clipPath clipPathUnits="userSpaceOnUse" id="clipPath3">
        <path d="M382 224 L382 280 L506 280 L506 224 Z"/>
      </clipPath>
      <clipPath clipPathUnits="userSpaceOnUse" id="clipPath4">
        <path d="M210 357 L210 413 L362 413 L362 357 Z"/>
      </clipPath>
      <clipPath clipPathUnits="userSpaceOnUse" id="clipPath5">
        <path d="M408 365 L408 404 L577 404 L577 365 Z"/>
      </clipPath>
      <clipPath clipPathUnits="userSpaceOnUse" id="clipPath6">
        <path d="M312 460 L312 499 L464 499 L464 460 Z"/>
      </clipPath>
      <clipPath clipPathUnits="userSpaceOnUse" id="clipPath7">
        <path d="M113 460 L113 499 L265 499 L265 460 Z"/>
      </clipPath>
      <clipPath clipPathUnits="userSpaceOnUse" id="clipPath8">
        <path d="M507 460 L507 499 L659 499 L659 460 Z"/>
      </clipPath>
      <clipPath clipPathUnits="userSpaceOnUse" id="clipPath9">
        <path d="M210 93 L210 124 L362 124 L362 93 Z"/>
      </clipPath>
      <clipPath clipPathUnits="userSpaceOnUse" id="clipPath10">
        <path d="M141 166 L141 194 L265 194 L265 166 Z"/>
      </clipPath>
      <clipPath clipPathUnits="userSpaceOnUse" id="clipPath11">
        <path d="M293 166 L293 194 L433 194 L433 166 Z"/>
      </clipPath>
    </defs>
    <g fill="white" text-rendering="geometricPrecision" shape-rendering="geometricPrecision" transform="translate(-98,-78)" stroke="white">
      <rect x="98" width="576" height="437" y="78" clip-path="url(#clipPath2)" stroke="none"/>
    </g>
    <g fill="rgb(255,255,204)" text-rendering="geometricPrecision" shape-rendering="geometricPrecision" transform="matrix(1,0,0,1,-98,-78)" stroke="rgb(255,255,204)">
      <rect x="382" width="124" height="56" y="224" clip-path="url(#clipPath2)" stroke="none"/>
    </g>
    <g text-rendering="geometricPrecision" stroke-miterlimit="1.45" shape-rendering="geometricPrecision" transform="matrix(1,0,0,1,-98,-78)" stroke-linecap="butt">
      <rect fill="none" x="382" width="124" height="56" y="224" clip-path="url(#clipPath2)"/>
      <text x="399.4863" xml:space="preserve" y="240.4023" clip-path="url(#clipPath3)" font-family="sans-serif" stroke="none">&lt;&lt;interface&gt;&gt;</text>
      <text x="418.4729" font-size="13px" y="264.3154" clip-path="url(#clipPath3)" font-family="sans-serif" stroke="none" font-weight="bold" xml:space="preserve">Display</text>
    </g>
    <g fill="rgb(255,255,204)" text-rendering="geometricPrecision" shape-rendering="geometricPrecision" transform="matrix(1,0,0,1,-98,-78)" stroke="rgb(255,255,204)">
      <rect x="210" width="152" height="56" y="357" clip-path="url(#clipPath2)" stroke="none"/>
    </g>
    <g text-rendering="geometricPrecision" stroke-miterlimit="1.45" shape-rendering="geometricPrecision" transform="matrix(1,0,0,1,-98,-78)" stroke-linecap="butt">
      <rect fill="none" x="210" width="152" height="56" y="357" clip-path="url(#clipPath2)"/>
      <text x="241.4863" xml:space="preserve" y="373.4023" clip-path="url(#clipPath4)" font-family="sans-serif" stroke="none">&lt;&lt;interface&gt;&gt;</text>
      <text x="240.1382" font-size="13px" y="397.3154" clip-path="url(#clipPath4)" font-family="sans-serif" stroke="none" font-weight="bold" xml:space="preserve">SpriteDisplay</text>
    </g>
    <g fill="rgb(255,255,204)" text-rendering="geometricPrecision" shape-rendering="geometricPrecision" transform="matrix(1,0,0,1,-98,-78)" stroke="rgb(255,255,204)">
      <rect x="408" width="169" height="39" y="365.5" clip-path="url(#clipPath2)" stroke="none"/>
    </g>
    <g text-rendering="geometricPrecision" stroke-miterlimit="1.45" shape-rendering="geometricPrecision" transform="matrix(1,0,0,1,-98,-78)" stroke-linecap="butt">
      <rect fill="none" x="408" width="169" height="39" y="365.5" clip-path="url(#clipPath2)"/>
      <text x="434.8918" font-size="13px" y="382.8525" clip-path="url(#clipPath5)" font-family="sans-serif" stroke="none" font-weight="bold" xml:space="preserve">AnimatedCanvas</text>
    </g>
    <g fill="rgb(255,255,204)" text-rendering="geometricPrecision" shape-rendering="geometricPrecision" transform="matrix(1,0,0,1,-98,-78)" stroke="rgb(255,255,204)">
      <rect x="312" width="152" height="39" y="460.5" clip-path="url(#clipPath2)" stroke="none"/>
    </g>
    <g text-rendering="geometricPrecision" stroke-miterlimit="1.45" shape-rendering="geometricPrecision" transform="matrix(1,0,0,1,-98,-78)" stroke-linecap="butt">
      <rect fill="none" x="312" width="152" height="39" y="460.5" clip-path="url(#clipPath2)"/>
      <text x="343.1252" font-size="13px" y="477.8525" clip-path="url(#clipPath6)" font-family="sans-serif" stroke="none" font-weight="bold" xml:space="preserve">SpriteCanvas</text>
    </g>
    <g fill="rgb(255,255,204)" text-rendering="geometricPrecision" shape-rendering="geometricPrecision" transform="matrix(1,0,0,1,-98,-78)" stroke="rgb(255,255,204)">
      <rect x="113" width="152" height="39" y="460.5" clip-path="url(#clipPath2)" stroke="none"/>
    </g>
    <g text-rendering="geometricPrecision" stroke-miterlimit="1.45" shape-rendering="geometricPrecision" transform="matrix(1,0,0,1,-98,-78)" stroke-linecap="butt">
      <rect fill="none" x="113" width="152" height="39" y="460.5" clip-path="url(#clipPath2)"/>
      <text x="145.7471" font-size="13px" y="477.8525" clip-path="url(#clipPath7)" font-family="sans-serif" stroke="none" font-weight="bold" xml:space="preserve">SpriteScreen</text>
    </g>
    <g fill="rgb(255,255,204)" text-rendering="geometricPrecision" shape-rendering="geometricPrecision" transform="matrix(1,0,0,1,-98,-78)" stroke="rgb(255,255,204)">
      <rect x="507" width="152" height="39" y="460.5" clip-path="url(#clipPath2)" stroke="none"/>
    </g>
    <g text-rendering="geometricPrecision" stroke-miterlimit="1.45" shape-rendering="geometricPrecision" transform="matrix(1,0,0,1,-98,-78)" stroke-linecap="butt">
      <rect fill="none" x="507" width="152" height="39" y="460.5" clip-path="url(#clipPath2)"/>
      <text x="527.9976" font-size="13px" y="477.8525" clip-path="url(#clipPath8)" font-family="sans-serif" stroke="none" font-weight="bold" xml:space="preserve">GraphicsCanvas</text>
    </g>
    <g fill="rgb(255,255,204)" text-rendering="geometricPrecision" shape-rendering="geometricPrecision" transform="matrix(1,0,0,1,-98,-78)" stroke="rgb(255,255,204)">
      <rect x="210" width="152" height="31" y="93" clip-path="url(#clipPath2)" stroke="none"/>
    </g>
    <g text-rendering="geometricPrecision" stroke-miterlimit="1.45" shape-rendering="geometricPrecision" transform="matrix(1,0,0,1,-98,-78)" stroke-linecap="butt">
      <rect fill="none" x="210" width="152" height="31" y="93" clip-path="url(#clipPath2)"/>
      <text x="223.6628" font-size="13px" y="110.3525" clip-path="url(#clipPath9)" font-family="sans-serif" stroke="none" font-weight="bold" xml:space="preserve">AnimationWindow</text>
    </g>
    <g fill="rgb(255,255,204)" text-rendering="geometricPrecision" shape-rendering="geometricPrecision" transform="matrix(1,0,0,1,-98,-78)" stroke="rgb(255,255,204)">
      <rect x="141" width="124" height="28" y="166" clip-path="url(#clipPath2)" stroke="none"/>
    </g>
    <g text-rendering="geometricPrecision" stroke-miterlimit="1.45" shape-rendering="geometricPrecision" transform="matrix(1,0,0,1,-98,-78)" stroke-linecap="butt">
      <rect fill="none" x="141" width="124" height="28" y="166" clip-path="url(#clipPath2)"/>
      <text x="155.948" font-size="13px" y="183.3525" clip-path="url(#clipPath10)" font-family="sans-serif" stroke="none" font-weight="bold" xml:space="preserve">SpriteWindow</text>
    </g>
    <g fill="rgb(255,255,204)" text-rendering="geometricPrecision" shape-rendering="geometricPrecision" transform="matrix(1,0,0,1,-98,-78)" stroke="rgb(255,255,204)">
      <rect x="293" width="140" height="28" y="166" clip-path="url(#clipPath2)" stroke="none"/>
    </g>
    <g text-rendering="geometricPrecision" stroke-miterlimit="1.45" shape-rendering="geometricPrecision" transform="matrix(1,0,0,1,-98,-78)" stroke-linecap="butt">
      <rect fill="none" x="293" width="140" height="28" y="166" clip-path="url(#clipPath2)"/>
      <text x="305.8203" font-size="13px" y="183.3525" clip-path="url(#clipPath11)" font-family="sans-serif" stroke="none" font-weight="bold" xml:space="preserve">GraphicsWindow</text>
      <path fill="none" d="M286 356.9951 L286 319 L444 319 L444 294.9712" clip-path="url(#clipPath2)"/>
      <path fill="white" d="M444 279.9712 L438 295.9712 L450 295.9712 Z" clip-path="url(#clipPath2)" stroke="none"/>
      <path fill="none" d="M444 279.9712 L438 295.9712 L450 295.9712 Z" clip-path="url(#clipPath2)"/>
      <path fill="none" stroke-dasharray="6,2" d="M492.5 365.5029 L492.5 319 L444 319 L444 294.9712" clip-path="url(#clipPath2)"/>
      <path fill="white" stroke-dasharray="6,2" d="M444 279.9712 L438 295.9712 L450 295.9712 Z" clip-path="url(#clipPath2)" stroke="none"/>
      <path fill="none" d="M444 279.9712 L438 295.9712 L450 295.9712 Z" clip-path="url(#clipPath2)"/>
      <path fill="none" stroke-dasharray="6,2" d="M388 460.5176 L388 438 L286 438 L286 427.9751" clip-path="url(#clipPath2)"/>
      <path fill="white" stroke-dasharray="6,2" d="M286 412.9751 L280 428.9751 L292 428.9751 Z" clip-path="url(#clipPath2)" stroke="none"/>
      <path fill="none" d="M286 412.9751 L280 428.9751 L292 428.9751 Z" clip-path="url(#clipPath2)"/>
      <path fill="none" d="M409.6667 460.4893 L409.6667 435 L492.5 435 L492.5 419.4824" clip-path="url(#clipPath2)"/>
      <path fill="white" d="M492.5 404.4824 L486.5 420.4824 L498.5 420.4824 Z" clip-path="url(#clipPath2)" stroke="none"/>
      <path fill="none" d="M492.5 404.4824 L486.5 420.4824 L498.5 420.4824 Z" clip-path="url(#clipPath2)"/>
      <path fill="none" stroke-dasharray="6,2" d="M189 460.5176 L189 438 L286 438 L286 427.9751" clip-path="url(#clipPath2)"/>
      <path fill="white" stroke-dasharray="6,2" d="M286 412.9751 L280 428.9751 L292 428.9751 Z" clip-path="url(#clipPath2)" stroke="none"/>
      <path fill="none" d="M286 412.9751 L280 428.9751 L292 428.9751 Z" clip-path="url(#clipPath2)"/>
      <path fill="none" d="M583 460.5322 L583 435 L492.5 435 L492.5 419.4824" clip-path="url(#clipPath2)"/>
      <path fill="white" d="M492.5 404.4824 L486.5 420.4824 L498.5 420.4824 Z" clip-path="url(#clipPath2)" stroke="none"/>
      <path fill="none" d="M492.5 404.4824 L486.5 420.4824 L498.5 420.4824 Z" clip-path="url(#clipPath2)"/>
      <path fill="none" d="M362.0417 108.5 L456.6667 108.5 L456.6667 218 L453.8629 223.9897" clip-path="url(#clipPath2)"/>
      <path d="M453.8629 223.9897 L463.4787 215.2412 L457.6784 215.8385 L454.4218 211.0018 Z" clip-path="url(#clipPath2)" stroke="none"/>
      <text x="391.2356" xml:space="preserve" y="122.8572" clip-path="url(#clipPath2)" font-family="sans-serif" stroke="none">controls →</text>
      <path fill="none" d="M203.9668 165.9814 L205 151 L286 151 L286 138.981" clip-path="url(#clipPath2)"/>
      <path fill="white" d="M286 123.981 L280 139.981 L292 139.981 Z" clip-path="url(#clipPath2)" stroke="none"/>
      <path fill="none" d="M286 123.981 L280 139.981 L292 139.981 Z" clip-path="url(#clipPath2)"/>
      <path fill="none" d="M362.7583 165.9814 L362.5 151 L286 151 L286 138.981" clip-path="url(#clipPath2)"/>
      <path fill="white" d="M286 123.981 L280 139.981 L292 139.981 Z" clip-path="url(#clipPath2)" stroke="none"/>
      <path fill="none" d="M286 123.981 L280 139.981 L292 139.981 Z" clip-path="url(#clipPath2)"/>
    </g>
  </g>
</svg>
